# xmcd
#
# Track frame offsets:
# 150
# 17553
# 47504
# 86275
# 115610
# 139170
# 166247
# 206629
# 230551
# 248690
# 263962
# 305595
#
# Disc length: 4439 seconds
#
#
# Revision: 0
# Processed by: cddbd v1.4PL0 Copyright (c) Steve Scherf et al.
# Submitted via: FreeRIP 2.30 
#
DISCID=9511550c
DTITLE=The Shuffledogs  (with Sweet Derrick Peart - The Shuffledogs
DYEAR=1900
DGENRE=Blues
TTITLE0=Walkin To My Baby
TTITLE1=Help Me
TTITLE2=The Thrill Is Gone
TTITLE3=Caledonia
TTITLE4=Ain't Nobody's Business
TTITLE5=Baby What You Want Me To Do
TTITLE6=Hoochie Coochie Man
TTITLE7=Crosscut Saw
TTITLE8=Kansas City
TTITLE9=My Babe
TTITLE10=Oh Baby
TTITLE11=I Got My Mojo Workin'
EXTD=Recorded at The Antrim House
EXTT0=Kim Wilson
EXTT1=Sonny Boy Williamson
EXTT2=Rick Darnell And Roy Hawkins
EXTT3=Fleecie Moore
EXTT4=Porter Granger and Everett Robbins
EXTT5=Jimmy Reed
EXTT6=Willie Dixon
EXTT7=R.G. Ford
EXTT8=Wilbert Harrison
EXTT9=Willie Dixon
EXTT10=Derrick Peart
EXTT11=Preston Foster and McKinley Morganfield
PLAYORDER=
